<svg width="2333" height="1929" viewBox="0 0 2333 1929" fill="none" xmlns="http://www.w3.org/2000/svg">
<rect width="2333" height="1929" fill="white"/>
<path opacity="0.99" fill-rule="evenodd" clip-rule="evenodd" d="M1178.17 242.568C1217.34 243.318 1250.37 245.681 1276.16 249.543C1297.55 252.771 1331.3 259.371 1351.1 264.242C1370.93 269.113 1399.43 277.702 1414.51 283.351C1429.58 289 1455.84 299.923 1472.87 307.676C1489.9 315.4 1518.44 330.416 1536.28 341.051C1554.12 351.657 1584.24 372.092 1603.2 386.445C1622.19 400.798 1652.54 426.794 1670.67 444.231C1688.77 461.668 1712.2 486.311 1722.72 498.992C1733.24 511.673 1748.37 531.128 1756.33 542.224C1764.31 553.32 1776.73 572.141 1783.94 584.015C1791.14 595.889 1802.87 617.304 1810.05 631.57C1817.2 645.837 1829.04 672.756 1836.39 691.375C1843.71 709.993 1854.21 742.417 1859.71 763.428C1865.22 784.439 1871.79 813.923 1874.35 828.997C1876.89 844.07 1879.68 881.653 1880.58 912.579C1881.53 946.472 1880.84 982.499 1878.79 1003.37C1876.95 1022.39 1872.25 1053.83 1868.36 1073.26C1864.44 1092.68 1856.54 1123.15 1850.8 1140.99C1845.07 1158.83 1833.37 1189.64 1824.84 1209.44C1816.28 1229.24 1802.01 1258.43 1793.1 1274.29C1784.2 1290.14 1769.99 1313.48 1761.49 1326.17C1752.98 1338.85 1744.11 1351.82 1741.74 1354.99C1737.59 1360.61 1736.82 1360.32 1711.48 1343.46C1697.19 1333.95 1685.95 1324.87 1686.55 1323.28C1687.13 1321.7 1695.86 1309.36 1705.98 1295.85C1716.06 1282.36 1730.42 1260.94 1737.88 1248.29C1745.32 1235.64 1757.88 1211.66 1765.84 1195.03C1773.77 1178.4 1785.01 1150.5 1790.8 1133.06C1796.62 1115.63 1804.32 1087.09 1807.92 1069.66C1811.49 1052.22 1816.07 1023.02 1818.09 1004.81C1820.43 983.306 1821.18 951.43 1820.17 914.02C1819.01 871.652 1816.94 847.961 1812.33 824.673C1808.9 807.236 1802.76 781.297 1798.67 767.031C1794.6 752.764 1786.82 729.419 1781.37 715.152C1775.93 700.886 1763.19 672.987 1753.1 653.186C1742.98 633.357 1727.33 606.15 1718.31 592.661C1709.29 579.173 1693.15 557.153 1682.46 543.665C1671.77 530.177 1646.98 503.603 1627.38 484.552C1607.78 465.53 1579.45 440.773 1564.38 429.532C1549.3 418.292 1527.26 403.247 1515.38 396.1C1503.51 388.923 1481.78 377.049 1467.11 369.699C1452.44 362.35 1431.05 352.579 1419.55 347.968C1408.05 343.385 1390.87 336.987 1381.36 333.759C1371.85 330.56 1354.33 325.343 1342.45 322.173C1330.58 319.003 1307.2 313.815 1290.57 310.644C1273.94 307.474 1242.16 303.324 1219.96 301.393C1195.52 299.289 1163.13 298.626 1137.82 299.779C1114.82 300.787 1083.06 303.583 1067.21 305.975C1051.36 308.339 1024.12 313.699 1006.68 317.85C989.248 322 962.011 329.868 946.16 335.315C930.308 340.792 899.181 354.021 876.988 364.713C854.796 375.435 821.075 394.659 802.053 407.455C783.031 420.252 755.16 441.003 740.087 453.598C725.013 466.193 700.544 489.337 685.701 505.044C670.829 520.723 649.905 545.25 639.183 559.517C628.462 573.783 613.244 595.832 605.347 608.513C597.479 621.195 585.835 641.946 579.465 654.627C573.125 667.309 563.037 689.991 557.042 705.065C551.076 720.138 543.064 742.821 539.288 755.502C535.484 768.184 529.23 794.123 525.397 813.145C521.535 832.167 516.894 865.225 515.078 886.639C513.205 908.976 512.6 940.881 513.695 961.575C514.733 981.375 517.557 1010.57 519.949 1026.42C522.341 1042.27 527.385 1067.55 531.132 1082.62C534.879 1097.7 542.027 1122.31 547.013 1137.39C551.97 1152.46 564.882 1182.92 575.661 1205.12C586.411 1227.31 604.742 1259.73 616.357 1277.17C627.972 1294.61 645.322 1316.68 654.92 1326.25C669.82 1341.09 675.7 1344.75 695.414 1351.44C708.095 1355.74 727.55 1361.07 738.646 1363.29C749.742 1365.51 767.9 1368.16 778.996 1369.2C790.092 1370.2 810.843 1369.71 825.11 1368.1C839.377 1366.49 858.831 1363.11 868.342 1360.64C877.853 1358.16 896.645 1351.73 910.133 1346.34C923.621 1340.95 950.858 1327.4 970.658 1316.19C990.487 1305.01 1013.17 1293.91 1021.1 1291.52C1030.52 1288.7 1046.49 1287.31 1067.21 1287.52C1084.65 1287.69 1105.8 1289.3 1114.22 1291.15C1122.63 1292.96 1129.75 1295.76 1130.07 1297.34C1130.36 1298.93 1119.61 1307.66 1106.12 1316.77C1092.63 1325.85 1073.84 1338.93 1064.33 1345.85C1054.82 1352.74 1045.31 1362.16 1043.17 1366.77C1040.84 1371.82 1039.97 1379.46 1041.01 1385.97C1041.93 1391.91 1045.74 1400.35 1049.43 1404.7C1053.12 1409.06 1061.85 1415.54 1068.88 1419.09C1077.61 1423.49 1086.84 1425.54 1098.19 1425.57C1107.3 1425.57 1118.34 1424.22 1122.69 1422.49C1127.04 1420.79 1141.63 1411.04 1155.11 1400.87C1174.17 1386.46 1182.49 1381.96 1192.58 1380.67C1203.62 1379.25 1207.28 1380.21 1217.08 1386.98C1223.42 1391.36 1247.4 1411.85 1270.4 1432.46C1293.4 1453.09 1332.02 1488.2 1356.26 1510.48C1392.98 1544.2 1400.33 1552.3 1400.21 1558.9C1400.15 1563.88 1396.46 1570.54 1390.3 1576.91C1383.26 1584.17 1377.99 1587 1371.56 1587C1364.33 1587 1357.04 1581.93 1333.26 1560.34C1317.09 1545.67 1292.13 1523.22 1277.78 1510.39C1263.43 1497.59 1249.07 1485.78 1245.9 1484.14C1242.73 1482.49 1238.52 1481.6 1236.53 1482.2C1234.55 1482.78 1232.93 1485.84 1232.93 1489.01C1232.93 1492.78 1248.06 1508.43 1276.8 1534.4C1300.95 1556.19 1324.3 1577.6 1328.68 1581.95C1333.2 1586.42 1336.69 1593.02 1336.69 1597.09C1336.69 1601.38 1332.74 1608.36 1326.89 1614.38C1320.64 1620.81 1314.38 1624.47 1309.6 1624.47C1304.6 1624.47 1295.62 1618.86 1282.65 1607.63C1271.96 1598.38 1250.89 1579.42 1235.81 1565.5C1220.74 1551.58 1205.52 1538.38 1201.95 1536.22C1197.31 1533.36 1193.82 1533.04 1189.7 1535.12C1186.53 1536.71 1183.94 1539.3 1183.94 1540.88C1183.94 1542.47 1201.78 1559.5 1223.57 1578.7C1245.35 1597.92 1266.11 1616.74 1269.68 1620.49C1273.25 1624.26 1276.19 1630.26 1276.22 1633.83C1276.25 1637.41 1272.04 1644.58 1266.85 1649.8C1260.63 1656.08 1254.75 1659.25 1249.5 1659.17C1243.71 1659.08 1233.36 1651.85 1211.14 1632.39C1194.4 1617.72 1174.94 1600.86 1167.91 1594.92C1157.07 1585.79 1153.01 1584.12 1141.42 1584.06C1133.9 1584.03 1125.14 1585.85 1121.97 1588.09C1116.61 1591.87 1115.83 1591.35 1111.16 1580.92C1108.4 1574.75 1101.91 1567.03 1096.75 1563.77C1089.34 1559.04 1083.7 1558 1069.63 1558.72C1052.28 1559.59 1051.82 1559.42 1050.18 1551.69C1049.22 1547.34 1044.9 1540.02 1040.55 1535.47C1036.2 1530.91 1028.1 1526.19 1022.54 1525C1015.45 1523.5 1009.45 1524.28 1002.36 1527.63C996.799 1530.22 991.957 1532.32 991.553 1532.3C991.15 1532.27 990.833 1530.31 990.833 1527.91C990.833 1525.52 988.354 1519.38 985.357 1514.22C982.33 1509.07 975.183 1502.58 969.505 1499.81C963.798 1497.05 956.535 1494.77 953.365 1494.77C950.195 1494.77 944.373 1496.07 940.395 1497.65C936.447 1499.24 924.428 1507.51 913.736 1516.04C903.043 1524.57 888.459 1534.46 881.312 1538.06C874.164 1541.66 861.194 1547.02 852.49 1549.99C843.786 1552.96 832.114 1555.38 826.551 1555.35C820.009 1555.32 809.402 1551.17 796.289 1543.54C785.192 1537.05 767.669 1525.72 757.38 1518.35C747.09 1511 725.676 1493.85 709.824 1480.24C693.973 1466.64 669.273 1442.63 654.949 1426.87C640.624 1411.1 620.622 1387.84 610.506 1375.16C600.361 1362.48 581.886 1336.54 569.407 1317.52C556.927 1298.5 539.116 1268.03 529.806 1249.79C520.526 1231.54 507.614 1203.36 501.129 1187.1C494.644 1170.85 484.73 1142.31 479.109 1123.7C473.518 1105.08 466.342 1075.56 463.229 1058.13C460.116 1040.69 456.081 1005.01 454.294 978.868C451.816 943.014 451.844 919.957 454.352 885.198C456.196 859.835 460.894 823.521 464.756 804.498C468.647 785.476 475.19 758.24 479.311 743.974C483.433 729.707 491.387 706.362 497.036 692.095C502.657 677.829 513.983 652.523 522.226 635.893C530.498 619.264 545.399 592.661 555.371 576.81C565.343 560.958 584.077 534.471 596.989 517.928C609.901 501.384 635.437 472.851 653.709 454.521C672.011 436.19 697.95 412.326 711.352 401.489C724.783 390.681 750.03 372.322 767.467 360.707C784.904 349.121 810.18 333.701 823.669 326.496C837.157 319.291 861.8 307.359 878.429 299.98C895.059 292.631 919.702 282.947 933.19 278.48C946.678 274.012 970.658 267.066 986.51 263.089C1002.36 259.083 1026.34 253.751 1039.83 251.272C1053.32 248.765 1076.63 245.508 1091.71 244.067C1106.78 242.597 1145.69 241.934 1178.17 242.568ZM765.997 595.544H835.197L847.735 616.439C854.652 627.939 880.735 669.759 905.723 709.388C930.74 749.017 963.798 801.559 979.218 826.114C994.637 850.67 1010.37 876.292 1014.18 883.008C1017.98 889.752 1021.76 895.286 1022.54 895.315C1023.31 895.372 1044.73 862.919 1070.09 823.232C1095.45 783.517 1133.07 724.779 1153.67 692.672C1174.28 660.593 1196.65 625.604 1215.64 595.544H1276.05L1276.16 1137.39L1217.08 1107.12L1214.2 714.835L1150.79 813.808C1115.92 868.223 1072.94 935.088 1023.23 1012.01L1014.96 1000.25C1010.4 993.768 967.113 926.73 830.874 713.971L829.433 1148.91L767.467 1147.47L765.997 595.544ZM949.762 1512.09C953.336 1512.09 958.841 1513.36 962.011 1514.95C965.182 1516.53 969.793 1522.7 972.272 1528.64C976.566 1538.98 976.451 1540.08 969.39 1554.57C965.326 1562.9 958.438 1572.36 954.086 1575.56C949.734 1578.78 941.952 1581.38 936.793 1581.32C930.308 1581.26 924.774 1578.55 918.779 1572.59C912.467 1566.28 910.133 1561.23 910.133 1553.85C910.133 1546.82 913.015 1540.05 919.644 1531.52C924.889 1524.77 932.354 1517.65 936.216 1515.69C940.107 1513.76 946.188 1512.12 949.762 1512.09ZM1011.44 1543.77C1019.42 1543.77 1024.55 1545.78 1029.74 1550.97C1034.53 1555.78 1036.91 1561.3 1036.89 1567.54C1036.83 1572.7 1033.92 1582.59 1030.4 1589.51C1026.86 1596.45 1019.77 1605.85 1014.61 1610.4C1009.45 1614.98 1002.02 1618.7 998.038 1618.7C994.09 1618.7 986.942 1616.77 982.186 1614.38C977.431 1611.99 972.243 1607.46 970.658 1604.29C969.073 1601.12 967.747 1594.32 967.689 1589.16C967.632 1583.4 970.773 1575.35 975.788 1568.26C980.284 1561.92 987.634 1553.83 992.159 1550.25C997.433 1546.07 1004.29 1543.77 1011.44 1543.77ZM1073.69 1575.47C1080.27 1575.47 1085.63 1578.04 1091.71 1584.12C1097.79 1590.2 1100.35 1595.53 1100.33 1602.13C1100.3 1607.29 1097.79 1616.68 1094.76 1623.03C1091.77 1629.37 1084.65 1638.76 1078.97 1643.92C1070.93 1651.21 1066.09 1653.29 1057.12 1653.29C1048.16 1653.29 1043.66 1651.36 1036.95 1644.64C1030.43 1638.13 1028.3 1633.31 1028.27 1625.19C1028.24 1618.07 1031.18 1609.71 1036.92 1600.69C1041.67 1593.17 1049.8 1584.4 1054.96 1581.23C1060.12 1578.09 1068.54 1575.5 1073.69 1575.47ZM1146.47 1602.74C1152.38 1603.54 1159.24 1607.12 1163.04 1611.41C1167.48 1616.4 1169.53 1622.36 1169.53 1630.23C1169.53 1638.5 1166.73 1646.02 1159.64 1656.89C1154.19 1665.22 1145.43 1674.47 1140.19 1677.47C1133.21 1681.45 1127.47 1682.48 1119.09 1681.24C1111.33 1680.12 1105.31 1676.92 1100.7 1671.47C1095.28 1665.08 1094.13 1660.98 1095.17 1651.85C1095.89 1645.19 1100.44 1634.52 1105.89 1626.63C1111.08 1619.11 1120.07 1610.34 1125.86 1607.14C1132.92 1603.28 1139.7 1601.84 1146.47 1602.74ZM1191.14 1638.88C1193.53 1638.88 1200.74 1643.75 1207.22 1649.68C1215.96 1657.73 1218.72 1662.31 1218.03 1667.61C1217.4 1672.38 1213.24 1676.99 1205.55 1681.45C1196.16 1686.89 1191.37 1687.84 1179.61 1686.52C1171.69 1685.63 1164.88 1684.27 1164.48 1683.49C1164.08 1682.74 1168.98 1674.01 1175.38 1664.1C1181.75 1654.18 1186.93 1644.47 1186.9 1642.48C1186.85 1640.49 1188.78 1638.88 1191.14 1638.88Z" fill="#112137"/>
<path opacity="0.99" d="M1381.36 594.707C1376.61 595.37 1364.94 597.676 1355.43 599.837C1345.91 601.999 1330.67 606.437 1321.56 609.723L1304.99 615.718C1304.99 673.793 1305.97 690.624 1307.15 690.567C1308.33 690.509 1313.2 688.002 1317.96 685.004C1322.71 681.978 1338.91 675.349 1353.98 670.277C1378.48 662.005 1384.85 661.025 1414.51 660.996C1435.87 660.996 1454.83 662.725 1467.83 665.867C1478.93 668.547 1499.68 676.444 1513.94 683.39C1534.26 693.305 1545.7 701.548 1566.83 721.463C1592.28 745.471 1594.1 746.624 1599.97 742.705C1603.38 740.428 1611.99 735.384 1619.14 731.493C1626.29 727.602 1635.02 722.674 1638.6 720.512L1645.08 716.592C1632.17 697.599 1620.81 684.313 1611.53 674.773C1602.25 665.262 1586.23 651.456 1575.91 644.107C1565.59 636.786 1548.1 626.18 1537 620.589C1525.9 614.997 1508.41 607.734 1498.09 604.506C1487.77 601.249 1470.94 597.272 1460.62 595.658C1450.31 594.015 1430.22 592.891 1415.95 593.122C1401.68 593.352 1386.12 594.073 1381.36 594.707ZM1577.26 1022.5C1569.4 1030.66 1556.45 1042.25 1548.53 1048.24C1540.6 1054.26 1524.38 1063.8 1512.5 1069.45C1500.6 1075.1 1481.81 1081.64 1470.71 1084.01C1459.61 1086.37 1436.27 1088.3 1418.83 1088.33C1396.96 1088.33 1379.75 1086.57 1363.35 1082.59C1350.27 1079.45 1332.77 1073.6 1324.44 1069.63C1316.11 1065.62 1308.33 1062.39 1307.15 1062.42C1305.97 1062.42 1304.99 1078.68 1304.99 1098.48C1304.99 1131.62 1305.45 1134.73 1310.75 1137.38C1313.92 1138.97 1329.8 1143.49 1346.06 1147.41C1362.31 1151.36 1387.27 1155.4 1401.54 1156.38C1416.07 1157.39 1439.53 1156.69 1454.86 1154.82C1469.93 1152.98 1494.55 1147.36 1509.62 1142.34C1525.15 1137.15 1546.97 1126.92 1560.06 1118.71C1572.74 1110.72 1589.6 1098.79 1597.53 1092.19C1605.45 1085.56 1618.68 1071.96 1626.95 1061.93C1635.22 1051.9 1642.03 1042.42 1642.11 1040.83C1642.17 1039.25 1632.17 1031.18 1619.89 1022.88C1607.58 1014.61 1596.2 1007.8 1594.56 1007.75C1592.94 1007.72 1585.16 1014.35 1577.26 1022.5ZM1187.54 1288.9C1179.21 1291.15 1165.61 1296.45 1157.28 1300.66C1148.95 1304.87 1133.07 1314.12 1121.97 1321.24C1110.88 1328.33 1091.1 1341.76 1078.02 1351.04C1060.32 1363.63 1054.24 1369.6 1054.24 1374.44C1054.21 1378.01 1057.24 1385.48 1060.96 1391.01C1064.68 1396.55 1072.46 1403.38 1078.25 1406.14C1084.07 1408.91 1094.65 1411.19 1101.8 1411.19C1111.77 1411.19 1117.91 1409 1128.46 1401.68C1135.98 1396.46 1151.23 1385.94 1162.32 1378.3C1181.81 1364.9 1183.1 1364.47 1200.02 1365.48C1214.37 1366.31 1220.37 1368.39 1233.17 1376.98C1241.75 1382.74 1259.83 1396.98 1273.28 1408.68C1286.74 1420.35 1319.83 1449.87 1346.78 1474.25C1373.73 1498.66 1403.56 1523.68 1413.07 1529.84C1422.58 1536.01 1438.14 1543.56 1447.65 1546.62C1457.17 1549.7 1473.36 1553.48 1483.68 1555.01C1498.06 1557.14 1505.93 1556.82 1517.55 1553.65C1525.88 1551.4 1540.14 1545.81 1549.25 1541.26C1558.36 1536.7 1579.45 1522.78 1596.08 1510.28C1612.71 1497.8 1638.65 1475.2 1653.73 1460.1C1668.8 1444.97 1690.56 1420.32 1702.12 1405.34C1713.65 1390.32 1723.07 1377.38 1723.04 1376.6C1722.98 1375.82 1709.99 1367.06 1694.11 1357.15L1665.26 1339.13C1619.46 1356.74 1593.86 1364.15 1578.79 1366.92C1561.33 1370.12 1536.8 1371.96 1511.06 1371.99C1484.08 1372.05 1463.07 1370.46 1447.65 1367.21C1434.97 1364.55 1412.92 1359.08 1398.66 1355.04C1382.32 1350.46 1351.42 1337.09 1315.08 1318.9C1278.04 1300.34 1251.76 1289.01 1241.58 1287.17C1232.88 1285.61 1220.54 1284.4 1214.2 1284.55C1207.86 1284.66 1195.87 1286.62 1187.54 1288.9Z" fill="#E2A545"/>
</svg>
