<svg width="400" height="100" viewBox="0 0 400 100" fill="none" xmlns="http://www.w3.org/2000/svg">
<rect width="400" height="100" fill="white"/>
<path opacity="0.99" fill-rule="evenodd" clip-rule="evenodd" d="M71.419 5.49926C73.8458 5.54569 75.8924 5.69212 77.4906 5.93142C78.8157 6.13142 80.9068 6.54037 82.1337 6.84217C83.3623 7.14397 85.1284 7.67613 86.0624 8.02614C86.9964 8.37616 88.6232 9.05297 89.6786 9.53334C90.734 10.0119 92.5019 10.9423 93.6073 11.6013C94.7127 12.2585 96.5789 13.5246 97.7539 14.4139C98.9308 15.3032 100.811 16.914 101.934 17.9944C103.056 19.0748 104.508 20.6016 105.16 21.3874C105.811 22.1731 106.749 23.3785 107.242 24.0661C107.736 24.7536 108.506 25.9197 108.953 26.6554C109.399 27.3912 110.126 28.718 110.571 29.602C111.013 30.486 111.747 32.1539 112.203 33.3075C112.656 34.4611 113.306 36.4701 113.647 37.772C113.988 39.0738 114.396 40.9007 114.555 41.8346C114.712 42.7686 114.885 45.0972 114.94 47.0134C114.999 49.1135 114.956 51.3457 114.83 52.6386C114.715 53.8172 114.424 55.7655 114.183 56.9691C113.94 58.1728 113.451 60.0603 113.096 61.1657C112.74 62.2711 112.015 64.1801 111.487 65.407C110.956 66.6338 110.072 68.4428 109.52 69.425C108.969 70.4072 108.088 71.8537 107.561 72.6394C107.035 73.4251 106.485 74.2288 106.338 74.4252C106.081 74.7734 106.033 74.7556 104.463 73.7109C103.577 73.1216 102.881 72.559 102.918 72.4608C102.954 72.3626 103.495 71.5983 104.122 70.7608C104.747 69.925 105.636 68.5982 106.099 67.8142C106.56 67.0303 107.338 65.5445 107.831 64.5141C108.322 63.4837 109.019 61.755 109.378 60.6746C109.738 59.5942 110.215 57.8263 110.438 56.7459C110.66 55.6655 110.944 53.8565 111.069 52.7279C111.213 51.3957 111.26 49.4206 111.197 47.1027C111.126 44.4776 110.997 43.0097 110.712 41.5668C110.499 40.4864 110.119 38.8791 109.865 37.9952C109.613 37.1112 109.131 35.6647 108.794 34.7808C108.456 33.8968 107.667 32.1682 107.042 30.9413C106.415 29.7127 105.445 28.0269 104.886 27.1912C104.327 26.3554 103.327 24.9911 102.665 24.1553C102.002 23.3196 100.467 21.6731 99.2522 20.4927C98.0379 19.3141 96.2824 17.7801 95.3485 17.0836C94.4145 16.3872 93.0484 15.455 92.3126 15.0121C91.5769 14.5675 90.2304 13.8317 89.3215 13.3764C88.4125 12.921 87.0874 12.3156 86.3749 12.0299C85.6624 11.7459 84.5981 11.3495 84.0087 11.1495C83.4194 10.9513 82.3337 10.628 81.5979 10.4316C80.8622 10.2352 79.4139 9.91372 78.3835 9.71728C77.3531 9.52084 75.3834 9.26369 74.0084 9.14404C72.494 9.01368 70.4868 8.97261 68.9189 9.04404C67.4938 9.10654 65.5259 9.27976 64.5437 9.42798C63.5615 9.57442 61.8739 9.90657 60.7935 10.1637C59.7131 10.4209 58.0256 10.9084 57.0434 11.2459C56.0612 11.5852 54.1326 12.4049 52.7575 13.0674C51.3825 13.7317 49.2931 14.9228 48.1145 15.7157C46.9359 16.5086 45.209 17.7944 44.275 18.5748C43.3411 19.3552 41.8249 20.7891 40.9053 21.7624C39.9838 22.7339 38.6873 24.2536 38.023 25.1375C37.3587 26.0215 36.4158 27.3876 35.9265 28.1734C35.439 28.9591 34.7175 30.2449 34.3229 31.0306C33.93 31.8164 33.305 33.2218 32.9335 34.1557C32.5639 35.0897 32.0674 36.4951 31.8335 37.2809C31.5978 38.0666 31.2102 39.6738 30.9727 40.8524C30.7334 42.0311 30.4459 44.0794 30.3334 45.4062C30.2173 46.7902 30.1798 48.767 30.2477 50.0492C30.312 51.2761 30.487 53.0851 30.6352 54.0672C30.7834 55.0494 31.096 56.6156 31.3281 57.5495C31.5603 58.4835 32.0031 60.0085 32.3121 60.9425C32.6192 61.8765 33.4193 63.7641 34.0871 65.1391C34.7532 66.5142 35.889 68.5232 36.6087 69.6036C37.3283 70.684 38.4034 72.0519 38.9981 72.6448C39.9213 73.5644 40.2856 73.7912 41.5071 74.2055C42.2928 74.4716 43.4982 74.802 44.1858 74.9395C44.8733 75.077 45.9983 75.2413 46.6859 75.3056C47.3734 75.3681 48.6591 75.3377 49.5431 75.2377C50.4271 75.1377 51.6325 74.9288 52.2218 74.7752C52.8111 74.6216 53.9754 74.2234 54.8112 73.8895C55.6469 73.5555 57.3345 72.7162 58.5613 72.0215C59.7899 71.3286 61.1954 70.6411 61.6864 70.4929C62.2704 70.3179 63.2597 70.2322 64.5437 70.2447C65.6241 70.2554 66.9349 70.3554 67.4563 70.4697C67.9778 70.5822 68.4188 70.7554 68.4385 70.8536C68.4564 70.9518 67.7903 71.4929 66.9545 72.0572C66.1188 72.6198 64.9544 73.4305 64.3651 73.8591C63.7758 74.2859 63.1865 74.8699 63.0544 75.1556C62.9097 75.4681 62.8561 75.9413 62.9204 76.3449C62.9776 76.7128 63.2133 77.236 63.4419 77.5057C63.6704 77.7753 64.2115 78.1771 64.6473 78.3968C65.1884 78.67 65.7598 78.7968 66.4634 78.7986C67.0277 78.7986 67.7117 78.7146 67.9813 78.6075C68.251 78.5021 69.1546 77.8985 69.9903 77.2682C71.1707 76.3753 71.6868 76.0967 72.3119 76.0163C72.9958 75.9288 73.2226 75.9877 73.8298 76.4074C74.2226 76.6788 75.7084 77.9485 77.1335 79.2254C78.5585 80.504 80.9515 82.6791 82.4533 84.0595C84.7284 86.1489 85.1838 86.6507 85.1766 87.0596C85.1731 87.3686 84.9445 87.7811 84.5623 88.1757C84.1266 88.6257 83.7998 88.8008 83.4016 88.8008C82.9533 88.8008 82.5015 88.4865 81.0283 87.1489C80.0264 86.2399 78.48 84.8488 77.5906 84.0541C76.7013 83.2612 75.812 82.5291 75.6156 82.4273C75.4191 82.3255 75.1584 82.2701 75.0352 82.3076C74.912 82.3434 74.812 82.5327 74.812 82.7291C74.812 82.963 75.7495 83.9327 77.5299 85.5417C79.0264 86.8918 80.4729 88.2186 80.7443 88.4882C81.0247 88.765 81.2408 89.174 81.2408 89.4258C81.2408 89.6919 80.9961 90.124 80.6336 90.4973C80.2461 90.8955 79.8586 91.1223 79.5621 91.1223C79.2526 91.1223 78.696 90.7746 77.8924 90.0794C77.2299 89.5061 75.9245 88.3311 74.9905 87.4686C74.0566 86.606 73.1137 85.7881 72.8922 85.6542C72.6047 85.4774 72.3886 85.4578 72.1333 85.5863C71.9368 85.6846 71.7761 85.8453 71.7761 85.9435C71.7761 86.0417 72.8815 87.0971 74.2316 88.2864C75.5816 89.4776 76.8674 90.6437 77.0888 90.8758C77.3103 91.1098 77.4924 91.4812 77.4942 91.7027C77.496 91.9241 77.2353 92.3687 76.9138 92.692C76.5281 93.0813 76.1638 93.2777 75.8388 93.2724C75.4798 93.267 74.8387 92.8188 73.4619 91.6134C72.4244 90.7044 71.219 89.6597 70.7832 89.2918C70.1118 88.7258 69.86 88.6222 69.1421 88.6186C68.676 88.6168 68.1331 88.7293 67.9367 88.8686C67.6045 89.1026 67.5563 89.0704 67.267 88.424C67.0956 88.0418 66.6938 87.5632 66.3741 87.3614C65.9152 87.0685 65.5652 87.0043 64.6937 87.0489C63.6187 87.1025 63.5901 87.0918 63.4883 86.6132C63.4294 86.3435 63.1615 85.8899 62.8918 85.6078C62.6222 85.3256 62.1204 85.0327 61.7757 84.9595C61.3364 84.8667 60.965 84.9149 60.5257 85.122C60.181 85.2828 59.881 85.4131 59.856 85.4113C59.831 85.4096 59.8114 85.2881 59.8114 85.1399C59.8114 84.9917 59.6578 84.6113 59.4721 84.2916C59.2846 83.972 58.8417 83.5702 58.4899 83.3988C58.1363 83.2273 57.6863 83.0862 57.4898 83.0862C57.2934 83.0862 56.9327 83.1666 56.6862 83.2648C56.4416 83.363 55.6969 83.8756 55.0344 84.4042C54.3719 84.9327 53.4683 85.5453 53.0254 85.7685C52.5825 85.9917 51.7789 86.3239 51.2396 86.5078C50.7003 86.6917 49.9771 86.8418 49.6324 86.84C49.227 86.8382 48.5699 86.581 47.7573 86.1078C47.0698 85.706 45.984 85.0042 45.3465 84.547C44.709 84.0916 43.3821 83.0291 42.4 82.1862C41.4178 81.3433 39.8874 79.8558 38.9998 78.8789C38.1123 77.9021 36.873 76.461 36.2462 75.6752C35.6176 74.8895 34.4729 73.2823 33.6996 72.1037C32.9264 70.9251 31.8228 69.0375 31.246 67.9071C30.6709 66.7767 29.8709 65.0302 29.4691 64.023C29.0673 63.0158 28.453 61.2479 28.1048 60.0943C27.7583 58.9407 27.3137 57.112 27.1208 56.0316C26.9279 54.9512 26.6779 52.7404 26.5672 51.1207C26.4136 48.8992 26.4154 47.4706 26.5708 45.3169C26.6851 43.7454 26.9761 41.4953 27.2154 40.3167C27.4565 39.1381 27.8619 37.4505 28.1173 36.5666C28.3726 35.6826 28.8655 34.2361 29.2155 33.3521C29.5638 32.4682 30.2656 30.9003 30.7763 29.8699C31.2888 28.8395 32.2121 27.1912 32.8299 26.209C33.4478 25.2268 34.6086 23.5857 35.4086 22.5606C36.2087 21.5356 37.7909 19.7677 38.923 18.6319C40.057 17.4962 41.6642 16.0175 42.4946 15.3461C43.3268 14.6764 44.8911 13.5389 45.9715 12.8192C47.0519 12.1013 48.6181 11.1459 49.4538 10.6995C50.2896 10.253 51.8164 9.5137 52.8468 9.05654C53.8772 8.60117 55.4041 8.00114 56.2398 7.72435C57.0755 7.44755 58.5613 7.01717 59.5435 6.77074C60.5257 6.52251 62.0115 6.19214 62.8472 6.03857C63.6829 5.8832 65.1276 5.68141 66.0616 5.59212C66.9956 5.50104 69.4064 5.45997 71.419 5.49926ZM45.8805 27.3698H50.1681L50.9449 28.6645C51.3735 29.377 52.9897 31.9682 54.5379 34.4236C56.088 36.8791 58.1363 40.1346 59.0917 41.656C60.0471 43.1775 61.0221 44.7651 61.2579 45.1812C61.4936 45.5991 61.7275 45.9419 61.7757 45.9437C61.8239 45.9473 63.1508 43.9365 64.7223 41.4775C66.2938 39.0167 68.6242 35.3772 69.9011 33.3879C71.1779 31.4003 72.5637 29.2323 73.7405 27.3698H77.4835L77.4906 60.9425L73.8298 59.0674L73.6512 34.7611L69.7225 40.8935C67.5617 44.2651 64.8991 48.4081 61.8186 53.1744L61.3061 52.4458C61.0239 52.044 58.3417 47.8902 49.9003 34.7076L49.811 61.6568L45.9715 61.5675L45.8805 27.3698ZM57.2666 84.1595C57.4881 84.1595 57.8291 84.2381 58.0256 84.3363C58.222 84.4345 58.5077 84.8167 58.6613 85.1845C58.9274 85.8256 58.9203 85.8935 58.4827 86.7917C58.2309 87.3078 57.8041 87.8936 57.5345 88.0918C57.2648 88.2918 56.7827 88.4525 56.463 88.449C56.0612 88.4454 55.7183 88.2775 55.3469 87.9079C54.9558 87.5168 54.8112 87.2043 54.8112 86.7471C54.8112 86.3114 54.9897 85.8917 55.4005 85.3631C55.7255 84.9452 56.188 84.5042 56.4273 84.3827C56.6684 84.2631 57.0452 84.1613 57.2666 84.1595ZM61.0882 86.1221C61.5829 86.1221 61.9007 86.2471 62.2222 86.5685C62.5186 86.8662 62.6662 87.2084 62.6651 87.5954C62.6615 87.915 62.4811 88.5275 62.2633 88.9561C62.0436 89.3865 61.6043 89.9687 61.2846 90.2508C60.965 90.5348 60.5043 90.7651 60.2578 90.7651C60.0132 90.7651 59.5703 90.6455 59.2756 90.4973C58.981 90.349 58.6595 90.0687 58.5613 89.8722C58.4631 89.6758 58.381 89.2543 58.3774 88.9347C58.3738 88.5775 58.5685 88.0793 58.8792 87.64C59.1578 87.2471 59.6131 86.7453 59.8935 86.5239C60.2203 86.2649 60.6453 86.1221 61.0882 86.1221ZM64.9455 88.0864C65.3527 88.0864 65.6848 88.2454 66.0616 88.6222C66.4384 88.999 66.5973 89.3293 66.5956 89.7383C66.5938 90.0579 66.4384 90.6401 66.2509 91.033C66.0652 91.4259 65.6241 92.008 65.2723 92.3277C64.7741 92.7795 64.4741 92.9081 63.9187 92.9081C63.3633 92.9081 63.0847 92.7884 62.6686 92.3723C62.265 91.9687 62.1329 91.6705 62.1311 91.1669C62.1293 90.7258 62.3115 90.208 62.6668 89.649C62.9615 89.1829 63.4651 88.64 63.7847 88.4436C64.1044 88.2489 64.6258 88.0882 64.9455 88.0864ZM69.4546 89.7758C69.8207 89.8258 70.2457 90.0472 70.4814 90.3133C70.7564 90.6223 70.8832 90.9919 70.8832 91.4794C70.8832 91.992 70.71 92.458 70.2707 93.1313C69.9332 93.6474 69.3903 94.2206 69.0653 94.4063C68.6331 94.6528 68.2778 94.7171 67.7581 94.6403C67.2777 94.5706 66.9045 94.3724 66.6188 94.0349C66.283 93.6384 66.2116 93.3849 66.2759 92.8188C66.3206 92.4063 66.6027 91.7455 66.9402 91.2562C67.2617 90.7901 67.8188 90.2472 68.1778 90.049C68.6153 89.8097 69.0349 89.7204 69.4546 89.7758ZM72.2226 92.0152C72.3708 92.0152 72.8172 92.317 73.219 92.6848C73.7601 93.1831 73.9316 93.467 73.8887 93.7956C73.8494 94.0908 73.5917 94.3766 73.1155 94.6528C72.5333 94.9903 72.2369 95.0492 71.5083 94.9671C71.0172 94.9117 70.5957 94.8278 70.5707 94.7796C70.5457 94.7331 70.8493 94.192 71.2458 93.5777C71.6404 92.9634 71.9619 92.3616 71.9601 92.2384C71.9565 92.1152 72.0761 92.0152 72.2226 92.0152Z" fill="#112137"/>
<path opacity="0.99" d="M84.0109 27.3188C83.7162 27.3599 82.993 27.5028 82.4036 27.6367C81.8143 27.7706 80.8697 28.0456 80.3054 28.2492L79.2785 28.6207C79.2785 32.219 79.3392 33.2619 79.4125 33.2583C79.4857 33.2548 79.7875 33.0994 80.0821 32.9137C80.3768 32.7262 81.3804 32.3154 82.3144 32.0012C83.8323 31.4886 84.2269 31.4279 86.0645 31.4261C87.3878 31.4261 88.5628 31.5333 89.3682 31.7279C90.0557 31.894 91.3415 32.3833 92.2255 32.8137C93.4844 33.428 94.1934 33.9387 95.5024 35.1727C97.0792 36.6603 97.1917 36.7317 97.556 36.4888C97.7667 36.3478 98.3007 36.0352 98.7436 35.7942C99.1865 35.5531 99.7275 35.2477 99.949 35.1138L100.351 34.8709C99.5508 33.6941 98.8472 32.8708 98.2721 32.2797C97.6971 31.6904 96.7042 30.835 96.0649 30.3797C95.4256 29.9261 94.3416 29.2689 93.6541 28.9225C92.9666 28.576 91.8826 28.126 91.2433 27.926C90.604 27.7242 89.5611 27.4778 88.9218 27.3778C88.2825 27.276 87.0378 27.2063 86.1538 27.2206C85.2698 27.2349 84.3055 27.2795 84.0109 27.3188ZM96.1488 53.8252C95.6613 54.3306 94.8595 55.0485 94.3684 55.4199C93.8773 55.7932 92.8719 56.3843 92.1362 56.7343C91.3986 57.0843 90.2343 57.4897 89.5468 57.6361C88.8593 57.7825 87.4128 57.9022 86.3324 57.904C84.977 57.904 83.9109 57.795 82.8947 57.5486C82.084 57.3539 81 56.9914 80.4839 56.745C79.9678 56.4968 79.4857 56.2967 79.4125 56.2985C79.3392 56.2985 79.2785 57.3057 79.2785 58.5326C79.2785 60.5862 79.3071 60.7791 79.6357 60.9434C79.8321 61.0416 80.8161 61.3219 81.8233 61.5648C82.8305 61.8095 84.3769 62.0595 85.2609 62.1202C86.1609 62.1827 87.6146 62.1398 88.5646 62.0238C89.4986 61.9095 91.0236 61.5612 91.9576 61.2505C92.9201 60.9291 94.272 60.2951 95.0827 59.7862C95.8685 59.2915 96.9131 58.5522 97.4042 58.1433C97.8953 57.7325 98.715 56.8896 99.2275 56.2682C99.74 55.6467 100.161 55.0592 100.167 54.961C100.17 54.8628 99.5508 54.3627 98.79 53.8484C98.0275 53.3359 97.3221 52.9145 97.2203 52.9109C97.1203 52.9091 96.6381 53.3199 96.1488 53.8252ZM72.0015 70.3312C71.4854 70.4705 70.6425 70.7991 70.1264 71.0598C69.6103 71.3206 68.6263 71.8938 67.9388 72.3349C67.2513 72.7742 66.0262 73.6064 65.2155 74.1814C64.119 74.9618 63.7422 75.3314 63.7422 75.6314C63.7404 75.8529 63.9279 76.3154 64.1583 76.6583C64.3887 77.0011 64.8708 77.4244 65.2298 77.5958C65.5905 77.7672 66.2459 77.9083 66.6887 77.9083C67.3066 77.9083 67.687 77.7726 68.3406 77.319C68.8067 76.9958 69.7514 76.344 70.4389 75.8707C71.6461 75.0404 71.7264 75.0136 72.7747 75.0761C73.664 75.1279 74.0355 75.2564 74.8284 75.7886C75.3605 76.1458 76.4802 77.0279 77.3142 77.753C78.1481 78.4762 80.1982 80.3048 81.8679 81.8156C83.5376 83.3282 85.3859 84.8782 85.9752 85.2604C86.5645 85.6425 87.5289 86.1104 88.1182 86.2997C88.7075 86.4908 89.7111 86.7247 90.3504 86.8194C91.2415 86.9515 91.729 86.9319 92.4487 86.7355C92.9648 86.5962 93.8487 86.2497 94.4131 85.9676C94.9774 85.6854 96.2846 84.8229 97.3149 84.0478C98.3453 83.2746 99.9526 81.8745 100.887 80.9388C101.82 80.0013 103.169 78.4744 103.885 77.5458C104.599 76.6154 105.183 75.8136 105.181 75.7654C105.178 75.7172 104.372 75.1743 103.388 74.56L101.601 73.4439C98.7632 74.535 97.1774 74.9939 96.2435 75.1654C95.1613 75.3636 93.6416 75.4779 92.0469 75.4797C90.3754 75.4832 89.0736 75.385 88.1182 75.1832C87.3324 75.0189 85.9663 74.6796 85.0823 74.4296C84.0698 74.1457 82.1554 73.3171 79.9035 72.1902C77.6088 71.0402 75.9802 70.3384 75.3498 70.2241C74.8105 70.1276 74.0462 70.0526 73.6533 70.0616C73.2604 70.0687 72.5175 70.1902 72.0015 70.3312Z" fill="#E2A545"/>
<path d="M162.376 48.2393V39.3853L158.918 45.9783H157.455L153.997 39.3853V48.2393H151.375V34.7493H154.187L158.177 42.4253L162.205 34.7493H164.998V48.2393H162.376ZM177.561 34.7493H180.221L185.18 48.2393H182.482L181.228 44.8763H176.516L175.281 48.2393H172.583L177.561 34.7493ZM180.753 43.0333L178.891 37.4663L176.953 43.0333H180.753ZM201.567 37.0483H197.254V48.2393H194.651V37.0483H190.338V34.7493H201.567V37.0483ZM208.189 41.3993C208.189 40.5759 208.335 39.7716 208.626 38.9863C208.93 38.1883 209.367 37.4663 209.937 36.8203C210.507 36.1616 211.204 35.6423 212.027 35.2623C212.851 34.8696 213.788 34.6733 214.839 34.6733C216.081 34.6733 217.151 34.9456 218.05 35.4903C218.962 36.0349 219.64 36.7443 220.083 37.6183L218.069 39.0053C217.841 38.4986 217.544 38.0996 217.176 37.8083C216.809 37.5043 216.416 37.2953 215.998 37.1813C215.58 37.0546 215.169 36.9913 214.763 36.9913C214.105 36.9913 213.528 37.1243 213.034 37.3903C212.553 37.6563 212.148 38.0046 211.818 38.4353C211.489 38.8659 211.242 39.3473 211.077 39.8793C210.925 40.4113 210.849 40.9433 210.849 41.4753C210.849 42.0706 210.944 42.6469 211.134 43.2043C211.324 43.7489 211.59 44.2366 211.932 44.6673C212.287 45.0853 212.705 45.4209 213.186 45.6743C213.68 45.9149 214.219 46.0353 214.801 46.0353C215.219 46.0353 215.644 45.9656 216.074 45.8263C216.505 45.6869 216.904 45.4653 217.271 45.1613C217.639 44.8573 217.924 44.4646 218.126 43.9833L220.273 45.2183C220.007 45.8896 219.57 46.4596 218.962 46.9283C218.367 47.3969 217.696 47.7516 216.948 47.9923C216.201 48.2329 215.46 48.3533 214.725 48.3533C213.763 48.3533 212.882 48.1569 212.084 47.7643C211.286 47.3589 210.596 46.8269 210.013 46.1683C209.443 45.4969 208.994 44.7496 208.664 43.9263C208.348 43.0903 208.189 42.2479 208.189 41.3993ZM239.455 34.7493V48.2393H236.852V42.4823H230.734V48.2393H228.112V34.7493H230.734V40.2023H236.852V34.7493H239.455Z" fill="#111F30"/>
<path d="M258.176 41.3993C258.176 40.5759 258.322 39.7716 258.613 38.9863C258.917 38.1883 259.354 37.4663 259.924 36.8203C260.494 36.1616 261.191 35.6423 262.014 35.2623C262.838 34.8696 263.775 34.6733 264.826 34.6733C266.068 34.6733 267.138 34.9456 268.037 35.4903C268.949 36.0349 269.627 36.7443 270.07 37.6183L268.056 39.0053C267.828 38.4986 267.531 38.0996 267.163 37.8083C266.796 37.5043 266.403 37.2953 265.985 37.1813C265.567 37.0546 265.156 36.9913 264.75 36.9913C264.092 36.9913 263.515 37.1243 263.021 37.3903C262.54 37.6563 262.135 38.0046 261.805 38.4353C261.476 38.8659 261.229 39.3473 261.064 39.8793C260.912 40.4113 260.836 40.9433 260.836 41.4753C260.836 42.0706 260.931 42.6469 261.121 43.2043C261.311 43.7489 261.577 44.2366 261.919 44.6673C262.274 45.0853 262.692 45.4209 263.173 45.6743C263.667 45.9149 264.206 46.0353 264.788 46.0353C265.206 46.0353 265.631 45.9656 266.061 45.8263C266.492 45.6869 266.891 45.4653 267.258 45.1613C267.626 44.8573 267.911 44.4646 268.113 43.9833L270.26 45.2183C269.994 45.8896 269.557 46.4596 268.949 46.9283C268.354 47.3969 267.683 47.7516 266.935 47.9923C266.188 48.2329 265.447 48.3533 264.712 48.3533C263.75 48.3533 262.869 48.1569 262.071 47.7643C261.273 47.3589 260.583 46.8269 260 46.1683C259.43 45.4969 258.981 44.7496 258.651 43.9263C258.335 43.0903 258.176 42.2479 258.176 41.3993ZM283.689 48.3343C282.701 48.3343 281.801 48.1443 280.991 47.7643C280.193 47.3843 279.502 46.8713 278.92 46.2253C278.35 45.5666 277.906 44.8319 277.59 44.0213C277.273 43.1979 277.115 42.3556 277.115 41.4943C277.115 40.5949 277.279 39.7399 277.609 38.9293C277.951 38.1059 278.413 37.3776 278.996 36.7443C279.591 36.0983 280.288 35.5916 281.086 35.2243C281.896 34.8443 282.783 34.6543 283.746 34.6543C284.721 34.6543 285.608 34.8506 286.406 35.2433C287.216 35.6359 287.907 36.1616 288.477 36.8203C289.047 37.4789 289.49 38.2136 289.807 39.0243C290.123 39.8349 290.282 40.6709 290.282 41.5323C290.282 42.4189 290.117 43.2739 289.788 44.0973C289.458 44.9079 288.996 45.6363 288.401 46.2823C287.818 46.9156 287.121 47.4159 286.311 47.7833C285.513 48.1506 284.639 48.3343 283.689 48.3343ZM279.775 41.4943C279.775 42.0769 279.863 42.6406 280.041 43.1853C280.218 43.7299 280.471 44.2176 280.801 44.6483C281.143 45.0663 281.554 45.4019 282.036 45.6553C282.53 45.8959 283.087 46.0163 283.708 46.0163C284.341 46.0163 284.905 45.8896 285.399 45.6363C285.893 45.3703 286.304 45.0219 286.634 44.5913C286.963 44.1479 287.21 43.6603 287.375 43.1283C287.552 42.5836 287.641 42.0389 287.641 41.4943C287.641 40.9116 287.546 40.3543 287.356 39.8223C287.178 39.2776 286.919 38.7963 286.577 38.3783C286.247 37.9476 285.836 37.6119 285.342 37.3713C284.86 37.1179 284.316 36.9913 283.708 36.9913C283.062 36.9913 282.492 37.1243 281.998 37.3903C281.516 37.6436 281.111 37.9856 280.782 38.4163C280.452 38.8469 280.199 39.3283 280.022 39.8603C279.857 40.3923 279.775 40.9369 279.775 41.4943ZM298.373 48.2393V34.7493H300.995V45.9403H307.873V48.2393H298.373ZM315.549 48.2393V34.7493H318.171V45.9403H325.049V48.2393H315.549ZM336.392 34.7493H339.052L344.011 48.2393H341.313L340.059 44.8763H335.347L334.112 48.2393H331.414L336.392 34.7493ZM339.584 43.0333L337.722 37.4663L335.784 43.0333H339.584ZM362.438 44.7623C362.438 45.5223 362.242 46.1619 361.849 46.6813C361.457 47.1879 360.925 47.5743 360.253 47.8403C359.595 48.1063 358.873 48.2393 358.087 48.2393H351.57V34.7493H358.79C359.424 34.7493 359.968 34.9203 360.424 35.2623C360.893 35.5916 361.248 36.0223 361.488 36.5543C361.742 37.0736 361.868 37.6183 361.868 38.1883C361.868 38.8343 361.704 39.4486 361.374 40.0313C361.045 40.6139 360.564 41.0446 359.93 41.3233C360.703 41.5513 361.311 41.9629 361.754 42.5583C362.21 43.1536 362.438 43.8883 362.438 44.7623ZM359.797 44.2683C359.797 43.9263 359.728 43.6223 359.588 43.3563C359.449 43.0776 359.259 42.8623 359.018 42.7103C358.79 42.5456 358.524 42.4633 358.22 42.4633H354.192V46.0163H358.087C358.404 46.0163 358.689 45.9403 358.942 45.7883C359.208 45.6236 359.417 45.4083 359.569 45.1423C359.721 44.8763 359.797 44.5849 359.797 44.2683ZM354.192 36.9913V40.3923H357.688C357.98 40.3923 358.246 40.3226 358.486 40.1833C358.727 40.0439 358.917 39.8476 359.056 39.5943C359.208 39.3409 359.284 39.0369 359.284 38.6823C359.284 38.3403 359.215 38.0426 359.075 37.7893C358.949 37.5359 358.771 37.3396 358.543 37.2003C358.328 37.0609 358.081 36.9913 357.802 36.9913H354.192Z" fill="#CF8D38"/>
<path d="M178.332 63.5001C178.332 63.1601 178.409 62.8551 178.562 62.5851C178.716 62.3118 178.924 62.0985 179.187 61.9451C179.454 61.7918 179.749 61.7151 180.072 61.7151C180.452 61.7151 180.784 61.8068 181.067 61.9901C181.351 62.1735 181.557 62.4335 181.687 62.7701H181.142C181.046 62.5601 180.906 62.3985 180.722 62.2851C180.542 62.1718 180.326 62.1151 180.072 62.1151C179.829 62.1151 179.611 62.1718 179.417 62.2851C179.224 62.3985 179.072 62.5601 178.962 62.7701C178.852 62.9768 178.797 63.2201 178.797 63.5001C178.797 63.7768 178.852 64.0201 178.962 64.2301C179.072 64.4368 179.224 64.5968 179.417 64.7101C179.611 64.8235 179.829 64.8801 180.072 64.8801C180.326 64.8801 180.542 64.8251 180.722 64.7151C180.906 64.6018 181.046 64.4401 181.142 64.2301H181.687C181.557 64.5635 181.351 64.8218 181.067 65.0051C180.784 65.1851 180.452 65.2751 180.072 65.2751C179.749 65.2751 179.454 65.2001 179.187 65.0501C178.924 64.8968 178.716 64.6851 178.562 64.4151C178.409 64.1451 178.332 63.8401 178.332 63.5001ZM183.944 65.2801C183.621 65.2801 183.326 65.2051 183.059 65.0551C182.793 64.9018 182.581 64.6901 182.424 64.4201C182.271 64.1468 182.194 63.8401 182.194 63.5001C182.194 63.1601 182.271 62.8551 182.424 62.5851C182.581 62.3118 182.793 62.1001 183.059 61.9501C183.326 61.7968 183.621 61.7201 183.944 61.7201C184.271 61.7201 184.568 61.7968 184.834 61.9501C185.101 62.1001 185.311 62.3101 185.464 62.5801C185.618 62.8501 185.694 63.1568 185.694 63.5001C185.694 63.8435 185.618 64.1501 185.464 64.4201C185.311 64.6901 185.101 64.9018 184.834 65.0551C184.568 65.2051 184.271 65.2801 183.944 65.2801ZM183.944 64.8851C184.188 64.8851 184.406 64.8285 184.599 64.7151C184.796 64.6018 184.949 64.4401 185.059 64.2301C185.173 64.0201 185.229 63.7768 185.229 63.5001C185.229 63.2201 185.173 62.9768 185.059 62.7701C184.949 62.5601 184.798 62.3985 184.604 62.2851C184.411 62.1718 184.191 62.1151 183.944 62.1151C183.698 62.1151 183.478 62.1718 183.284 62.2851C183.091 62.3985 182.938 62.5601 182.824 62.7701C182.714 62.9768 182.659 63.2201 182.659 63.5001C182.659 63.7768 182.714 64.0201 182.824 64.2301C182.938 64.4401 183.091 64.6018 183.284 64.7151C183.481 64.8285 183.701 64.8851 183.944 64.8851ZM189.035 65.2451H188.58L186.75 62.4701V65.2451H186.295V61.7551H186.75L188.58 64.5251V61.7551H189.035V65.2451ZM192.551 65.2451H192.096L190.266 62.4701V65.2451H189.811V61.7551H190.266L192.096 64.5251V61.7551H192.551V65.2451ZM193.781 62.1301V63.2951H195.051V63.6701H193.781V64.8701H195.201V65.2451H193.326V61.7551H195.201V62.1301H193.781ZM195.72 63.5001C195.72 63.1601 195.797 62.8551 195.95 62.5851C196.103 62.3118 196.312 62.0985 196.575 61.9451C196.842 61.7918 197.137 61.7151 197.46 61.7151C197.84 61.7151 198.172 61.8068 198.455 61.9901C198.738 62.1735 198.945 62.4335 199.075 62.7701H198.53C198.433 62.5601 198.293 62.3985 198.11 62.2851C197.93 62.1718 197.713 62.1151 197.46 62.1151C197.217 62.1151 196.998 62.1718 196.805 62.2851C196.612 62.3985 196.46 62.5601 196.35 62.7701C196.24 62.9768 196.185 63.2201 196.185 63.5001C196.185 63.7768 196.24 64.0201 196.35 64.2301C196.46 64.4368 196.612 64.5968 196.805 64.7101C196.998 64.8235 197.217 64.8801 197.46 64.8801C197.713 64.8801 197.93 64.8251 198.11 64.7151C198.293 64.6018 198.433 64.4401 198.53 64.2301H199.075C198.945 64.5635 198.738 64.8218 198.455 65.0051C198.172 65.1851 197.84 65.2751 197.46 65.2751C197.137 65.2751 196.842 65.2001 196.575 65.0501C196.312 64.8968 196.103 64.6851 195.95 64.4151C195.797 64.1451 195.72 63.8401 195.72 63.5001ZM201.897 61.7601V62.1301H200.947V65.2451H200.492V62.1301H199.537V61.7601H201.897Z" fill="#111F30"/>
<path d="M222.05 66.3218C221.68 66.3218 221.382 66.2228 221.159 66.0247C220.935 65.8267 220.824 65.5776 220.824 65.2773C220.824 64.9707 220.935 64.7184 221.159 64.5203C221.382 64.3159 221.68 64.2137 222.05 64.2137C222.414 64.2137 222.708 64.3159 222.932 64.5203C223.155 64.7184 223.267 64.9707 223.267 65.2773C223.267 65.5776 223.155 65.8267 222.932 66.0247C222.708 66.2228 222.414 66.3218 222.05 66.3218Z" fill="#CF8D38"/>
<path d="M242.184 63.5001C242.184 63.1601 242.26 62.8551 242.414 62.5851C242.567 62.3118 242.775 62.0985 243.039 61.9451C243.305 61.7918 243.6 61.7151 243.924 61.7151C244.304 61.7151 244.635 61.8068 244.919 61.9901C245.202 62.1735 245.409 62.4335 245.539 62.7701H244.994C244.897 62.5601 244.757 62.3985 244.574 62.2851C244.394 62.1718 244.177 62.1151 243.924 62.1151C243.68 62.1151 243.462 62.1718 243.269 62.2851C243.075 62.3985 242.924 62.5601 242.814 62.7701C242.704 62.9768 242.649 63.2201 242.649 63.5001C242.649 63.7768 242.704 64.0201 242.814 64.2301C242.924 64.4368 243.075 64.5968 243.269 64.7101C243.462 64.8235 243.68 64.8801 243.924 64.8801C244.177 64.8801 244.394 64.8251 244.574 64.7151C244.757 64.6018 244.897 64.4401 244.994 64.2301H245.539C245.409 64.5635 245.202 64.8218 244.919 65.0051C244.635 65.1851 244.304 65.2751 243.924 65.2751C243.6 65.2751 243.305 65.2001 243.039 65.0501C242.775 64.8968 242.567 64.6851 242.414 64.4151C242.26 64.1451 242.184 63.8401 242.184 63.5001ZM247.796 65.2801C247.473 65.2801 247.178 65.2051 246.911 65.0551C246.644 64.9018 246.433 64.6901 246.276 64.4201C246.123 64.1468 246.046 63.8401 246.046 63.5001C246.046 63.1601 246.123 62.8551 246.276 62.5851C246.433 62.3118 246.644 62.1001 246.911 61.9501C247.178 61.7968 247.473 61.7201 247.796 61.7201C248.123 61.7201 248.419 61.7968 248.686 61.9501C248.953 62.1001 249.163 62.3101 249.316 62.5801C249.469 62.8501 249.546 63.1568 249.546 63.5001C249.546 63.8435 249.469 64.1501 249.316 64.4201C249.163 64.6901 248.953 64.9018 248.686 65.0551C248.419 65.2051 248.123 65.2801 247.796 65.2801ZM247.796 64.8851C248.039 64.8851 248.258 64.8285 248.451 64.7151C248.648 64.6018 248.801 64.4401 248.911 64.2301C249.024 64.0201 249.081 63.7768 249.081 63.5001C249.081 63.2201 249.024 62.9768 248.911 62.7701C248.801 62.5601 248.649 62.3985 248.456 62.2851C248.263 62.1718 248.043 62.1151 247.796 62.1151C247.549 62.1151 247.329 62.1718 247.136 62.2851C246.943 62.3985 246.789 62.5601 246.676 62.7701C246.566 62.9768 246.511 63.2201 246.511 63.5001C246.511 63.7768 246.566 64.0201 246.676 64.2301C246.789 64.4401 246.943 64.6018 247.136 64.7151C247.333 64.8285 247.553 64.8851 247.796 64.8851ZM250.602 64.8751H251.822V65.2451H250.147V61.7601H250.602V64.8751ZM252.76 64.8751H253.98V65.2451H252.305V61.7601H252.76V64.8751ZM256.523 64.4701H255.003L254.723 65.2451H254.243L255.503 61.7801H256.028L257.283 65.2451H256.803L256.523 64.4701ZM256.393 64.1001L255.763 62.3401L255.133 64.1001H256.393ZM259.577 63.4501C259.704 63.4701 259.819 63.5218 259.922 63.6051C260.029 63.6885 260.112 63.7918 260.172 63.9151C260.236 64.0385 260.267 64.1701 260.267 64.3101C260.267 64.4868 260.222 64.6468 260.132 64.7901C260.042 64.9301 259.911 65.0418 259.737 65.1251C259.567 65.2051 259.366 65.2451 259.132 65.2451H257.832V61.7601H259.082C259.319 61.7601 259.521 61.8001 259.687 61.8801C259.854 61.9568 259.979 62.0618 260.062 62.1951C260.146 62.3285 260.187 62.4785 260.187 62.6451C260.187 62.8518 260.131 63.0235 260.017 63.1601C259.907 63.2935 259.761 63.3901 259.577 63.4501ZM258.287 63.2651H259.052C259.266 63.2651 259.431 63.2151 259.547 63.1151C259.664 63.0151 259.722 62.8768 259.722 62.7001C259.722 62.5235 259.664 62.3851 259.547 62.2851C259.431 62.1851 259.262 62.1351 259.042 62.1351H258.287V63.2651ZM259.092 64.8701C259.319 64.8701 259.496 64.8168 259.622 64.7101C259.749 64.6035 259.812 64.4551 259.812 64.2651C259.812 64.0718 259.746 63.9201 259.612 63.8101C259.479 63.6968 259.301 63.6401 259.077 63.6401H258.287V64.8701H259.092ZM262.479 65.2801C262.155 65.2801 261.86 65.2051 261.594 65.0551C261.327 64.9018 261.115 64.6901 260.959 64.4201C260.805 64.1468 260.729 63.8401 260.729 63.5001C260.729 63.1601 260.805 62.8551 260.959 62.5851C261.115 62.3118 261.327 62.1001 261.594 61.9501C261.86 61.7968 262.155 61.7201 262.479 61.7201C262.805 61.7201 263.102 61.7968 263.369 61.9501C263.635 62.1001 263.845 62.3101 263.999 62.5801C264.152 62.8501 264.229 63.1568 264.229 63.5001C264.229 63.8435 264.152 64.1501 263.999 64.4201C263.845 64.6901 263.635 64.9018 263.369 65.0551C263.102 65.2051 262.805 65.2801 262.479 65.2801ZM262.479 64.8851C262.722 64.8851 262.94 64.8285 263.134 64.7151C263.33 64.6018 263.484 64.4401 263.594 64.2301C263.707 64.0201 263.764 63.7768 263.764 63.5001C263.764 63.2201 263.707 62.9768 263.594 62.7701C263.484 62.5601 263.332 62.3985 263.139 62.2851C262.945 62.1718 262.725 62.1151 262.479 62.1151C262.232 62.1151 262.012 62.1718 261.819 62.2851C261.625 62.3985 261.472 62.5601 261.359 62.7701C261.249 62.9768 261.194 63.2201 261.194 63.5001C261.194 63.7768 261.249 64.0201 261.359 64.2301C261.472 64.4401 261.625 64.6018 261.819 64.7151C262.015 64.8285 262.235 64.8851 262.479 64.8851ZM266.664 65.2451L265.834 63.8201H265.284V65.2451H264.829V61.7601H265.954C266.218 61.7601 266.439 61.8051 266.619 61.8951C266.803 61.9851 266.939 62.1068 267.029 62.2601C267.119 62.4135 267.164 62.5885 267.164 62.7851C267.164 63.0251 267.094 63.2368 266.954 63.4201C266.818 63.6035 266.611 63.7251 266.334 63.7851L267.209 65.2451H266.664ZM265.284 63.4551H265.954C266.201 63.4551 266.386 63.3951 266.509 63.2751C266.633 63.1518 266.694 62.9885 266.694 62.7851C266.694 62.5785 266.633 62.4185 266.509 62.3051C266.389 62.1918 266.204 62.1351 265.954 62.1351H265.284V63.4551ZM269.931 64.4701H268.411L268.131 65.2451H267.651L268.911 61.7801H269.436L270.691 65.2451H270.211L269.931 64.4701ZM269.801 64.1001L269.171 62.3401L268.541 64.1001H269.801ZM273.385 61.7601V62.1301H272.435V65.2451H271.98V62.1301H271.025V61.7601H273.385ZM274.401 62.1301V63.2951H275.671V63.6701H274.401V64.8701H275.821V65.2451H273.946V61.7551H275.821V62.1301H274.401Z" fill="#111F30"/>
<path d="M296.432 66.3218C296.061 66.3218 295.764 66.2228 295.54 66.0247C295.317 65.8267 295.205 65.5776 295.205 65.2773C295.205 64.9707 295.317 64.7184 295.54 64.5203C295.764 64.3159 296.061 64.2137 296.432 64.2137C296.796 64.2137 297.09 64.3159 297.313 64.5203C297.537 64.7184 297.649 64.9707 297.649 65.2773C297.649 65.5776 297.537 65.8267 297.313 66.0247C297.09 66.2228 296.796 66.3218 296.432 66.3218Z" fill="#CF8D38"/>
<path d="M317.66 62.1301V63.2951H318.93V63.6701H317.66V64.8701H319.08V65.2451H317.205V61.7551H319.08V62.1301H317.66ZM320.224 64.8751H321.444V65.2451H319.769V61.7601H320.224V64.8751ZM322.382 62.1301V63.2951H323.652V63.6701H322.382V64.8701H323.802V65.2451H321.927V61.7551H323.802V62.1301H322.382ZM327.37 61.7601L326.055 65.2451H325.53L324.215 61.7601H324.7L325.795 64.7651L326.89 61.7601H327.37ZM329.929 64.4701H328.409L328.129 65.2451H327.649L328.909 61.7801H329.434L330.689 65.2451H330.209L329.929 64.4701ZM329.799 64.1001L329.169 62.3401L328.539 64.1001H329.799ZM333.384 61.7601V62.1301H332.434V65.2451H331.979V62.1301H331.024V61.7601H333.384ZM334.399 62.1301V63.2951H335.669V63.6701H334.399V64.8701H335.819V65.2451H333.944V61.7551H335.819V62.1301H334.399Z" fill="#111F30"/>
</svg>
